<svg xmlns="http://www.w3.org/2000/svg" height="20" viewBox="0 -960 960 960" width="20"><path d="m367-80-15-126q-10-6-22-13t-22-13l-117 49L78-378l100-76v-52L78-582l113-195 117 49q10-6 22-13t22-13l15-126h226l15 126q10 6 22 13t22 13l117-49 113 195-99 76v52l99 76-113 195-117-49q-10 6-22 13t-22 13L593-80H367Zm113-257q59 0 101-42t42-101q0-59-42-101t-101-42q-59 0-101 42t-42 101q0 59 42 101t101 42Zm0-84q-24 0-41.5-17.5T421-480q0-24 17.5-41.5T480-539q24 0 41.5 17.5T539-480q0 24-17.5 41.5T480-421Zm1-59Zm-41 316h80l12-104q29-8 56-24t49-38l97 41 40-66-85-65q5-14 7-29t2-31q0-14-2-28.5t-6-30.5l85-66-40-66-97 42q-23-23-49.5-38.5T533-691l-13-105h-80l-13 105q-29 8-55.5 23.5T323-630l-97-41-40 66 84 65q-4 16-6 31t-2 29q0 14 2 28.5t6 30.5l-84 66 40 66 97-41q22 22 48.5 37.5T427-269l13 105Z"/></svg>